<svg width="645" height="762" viewBox="0 0 645 762" fill="none" xmlns="http://www.w3.org/2000/svg">
<path d="M418.124 58.1492C428.122 58.1355 437.622 58.0276 447.118 58.1546C451.313 58.2107 453.221 56.6299 453.136 52.2876C452.978 44.2927 452.85 36.2823 453.166 28.2965C453.592 17.5243 457.371 8.45562 467.634 3.27296C477.678 -1.79891 487.312 -0.956239 496.326 5.6623C504.069 11.3474 506.962 19.523 507.16 28.76C507.332 36.7543 507.311 44.7602 507.083 52.7526C506.964 56.9113 508.573 58.2718 512.654 58.2077C525.149 58.0112 537.649 58.085 550.147 58.1151C594.278 58.2213 631.457 87.5532 641.604 130.401C643.33 137.688 644.182 145.187 644.184 152.666C644.232 328.135 644.27 503.604 644.128 679.073C644.095 720.274 612.915 755.593 572.252 761.236C569.136 761.668 565.935 761.574 562.773 761.574C402.801 761.588 242.828 761.299 82.8582 761.867C56.2932 761.961 20.3822 744.65 6.60855 710.545C2.3087 699.898 0.0752535 688.86 0.0709505 677.45C0.0051095 502.98 -0.000307611 328.511 1.23885e-05 154.041C0.000104389 108.26 28.1919 71.8639 72.4394 60.5635C79.2297 58.8293 86.1978 58.1286 93.2264 58.1404C105.891 58.1617 118.556 58.1853 131.22 58.1189C137.043 58.0884 137.712 57.2449 137.915 51.3826C138.26 41.4127 136.905 31.3843 138.787 21.4711C141.355 7.93877 153.818 -1.18417 167.72 0.188597C180.81 1.48121 191.254 12.9148 191.424 26.27C191.528 34.434 191.471 42.6 191.484 50.7651C191.495 57.9762 191.606 58.1209 198.666 58.1239C244.658 58.1438 290.65 58.1531 336.642 58.1591C363.636 58.1626 390.63 58.1537 418.124 58.1492ZM609.929 721.633C619.827 710.145 625.568 696.942 626.147 681.696C626.463 673.374 626.771 665.039 626.652 656.717C626.175 623.406 626.888 590.095 626.36 556.78C625.931 529.652 626.662 502.507 626.667 475.37C626.672 450.065 626.279 424.76 626.282 399.456C626.284 373.316 626.681 347.175 626.669 321.035C626.655 292.221 625.836 263.397 626.381 234.596C626.788 213.069 609.534 195.562 587.198 195.576C410.377 195.685 233.554 195.637 56.7324 195.656C34.3001 195.658 18.2016 211.594 18.1941 233.985C18.1447 381.808 18.147 529.632 18.1674 677.455C18.1679 681.444 18.1495 685.506 18.8399 689.411C24.7859 723.034 54.4575 744.291 84.4062 744.245C242.562 744.004 400.719 744.073 558.876 744.191C579.134 744.206 595.757 736.75 609.929 721.633ZM190.394 122.615C185.105 136.5 174.462 143.282 160.654 141.567C148.763 140.089 139.378 130 138.162 116.468C137.508 109.195 138.036 101.819 137.91 94.4923C137.874 92.4275 138.582 90.1456 136.859 88.35C128.161 91.3642 121.558 108.533 123.51 122.875C126.041 141.476 143.012 157.159 161.614 158.087C182.692 159.139 200.549 146.045 205.281 126.069C208.861 110.954 202.654 92.3099 192.447 87.6864C190.858 89.5517 191.569 91.8126 191.456 93.9009C190.95 103.193 192.348 112.544 190.394 122.615ZM515.984 95.9856C513.828 92.7122 511.755 89.3559 507.217 86.8857C507.217 93.3224 507.235 98.9134 507.213 104.504C507.188 110.817 507.549 117.12 505.468 123.298C501.491 135.106 491.73 141.959 478.783 141.684C467.395 141.442 457.74 133.57 454.612 122.108C452.284 113.574 453.26 104.909 453.369 96.2717C453.406 93.3501 454.045 90.3522 452.487 87.331C451.686 87.7409 451.032 87.9344 450.567 88.3435C449.571 89.2197 448.563 90.1216 447.753 91.1625C439.853 101.304 436.469 112.648 439.522 125.337C443.754 142.931 454.924 154.034 472.628 157.394C488.852 160.473 502.848 155.144 512.906 142.014C523.716 127.902 524.966 112.489 515.984 95.9856Z" fill="black"/>
<path d="M451.191 574.072C465.15 587.351 481.215 595.396 500.121 597.63C503.578 598.038 508.389 597.835 508.059 603.116C507.729 608.381 503.09 607.548 499.534 607.556C477.204 607.609 454.874 607.747 432.546 607.55C408.7 607.339 389.321 598.902 374.629 578.893C345.248 538.879 314.827 499.628 284.955 459.972C282.529 456.751 280.868 456.428 277.924 459.203C268.713 467.887 259.349 476.409 249.971 484.913C247.704 486.969 246.698 489.272 246.721 492.357C246.89 514.518 246.702 536.684 247.105 558.839C247.514 581.288 259.42 594.167 281.844 597.329C283.82 597.608 285.797 597.974 287.72 598.5C289.887 599.092 291.08 600.651 291.043 602.925C291.001 605.48 289.438 606.92 287.082 607.351C285.461 607.647 283.765 607.59 282.103 607.59C236.444 607.596 190.786 607.591 145.127 607.583C143.795 607.583 142.456 607.607 141.131 607.493C138.256 607.244 136.387 605.707 136.288 602.771C136.19 599.885 138.298 598.708 140.78 598.31C146.208 597.44 151.599 596.486 156.854 594.792C170.961 590.247 178.92 580.454 181.373 566.052C182.125 561.635 182.637 557.174 182.632 552.646C182.559 483.825 182.538 415.004 182.531 346.183C182.531 340.627 181.463 335.253 179.91 329.984C175.228 314.095 162.462 308.76 147.954 305.802C145.673 305.336 143.367 304.985 141.062 304.651C138.289 304.25 136.109 302.959 136.124 299.987C136.141 296.583 138.787 295.716 141.663 295.503C142.824 295.417 143.995 295.435 145.161 295.435C190.486 295.408 235.811 295.378 281.136 295.38C283.29 295.38 285.476 295.49 287.589 295.872C289.542 296.226 290.827 297.567 290.984 299.669C291.158 302.007 289.938 303.574 287.807 304.153C285.247 304.849 282.602 305.246 279.982 305.702C259.335 309.298 247.792 320.975 247.324 341.812C246.521 377.62 246.949 413.456 246.888 449.28C246.887 450.216 246.671 451.317 247.717 452.017C249.277 452.258 250.105 451.05 251.036 450.189C289.672 414.432 329.127 379.557 366.747 342.709C371.746 337.812 376.348 332.496 379.337 326.044C382.912 318.326 380.822 312.55 373.15 308.764C368.29 306.366 362.936 305.823 357.717 304.819C354.776 304.253 351.777 303.553 351.89 299.917C352.005 296.195 355.193 295.714 358.096 295.535C361.085 295.351 364.092 295.422 367.091 295.421C403.751 295.408 440.411 295.371 477.071 295.442C480.693 295.449 485.842 294.241 486.43 299.54C487.052 305.153 481.6 304.617 478.122 305.089C451.194 308.74 429.574 322.696 409.864 340.207C383.962 363.218 358.322 386.522 332.418 409.53C328.661 412.867 328.397 415.042 331.564 419.177C368.939 467.983 405.438 517.458 443.513 565.729C445.775 568.596 448.452 571.136 451.191 574.072Z" fill="black"/>
<path d="M133.139 690.034C172.123 690.01 210.609 689.986 249.095 689.974C250.423 689.974 251.781 689.945 253.072 690.198C254.715 690.52 255.688 691.662 255.648 693.394C255.613 694.905 254.663 695.949 253.289 696.26C251.85 696.586 250.322 696.612 248.833 696.612C207.848 696.61 166.863 696.588 125.878 696.567C124.878 696.566 123.876 696.582 122.881 696.506C120.903 696.356 119.109 695.692 119.058 693.405C118.999 690.78 120.975 690.146 123.146 690.096C126.31 690.024 129.476 690.05 133.139 690.034Z" fill="black"/>
<path d="M516.997 690.023C518.641 690.025 519.806 690.024 520.971 690.031C523.271 690.044 525.657 690.33 525.569 693.277C525.484 696.101 523.105 696.509 520.826 696.521C510.173 696.578 499.52 696.619 488.867 696.623C458.072 696.636 427.278 696.63 396.483 696.621C394.988 696.621 393.466 696.678 392.006 696.425C390.158 696.104 389.009 694.834 389.151 692.919C389.277 691.212 390.543 690.272 392.182 690.122C394 689.955 395.838 689.969 397.668 689.969C437.284 689.982 476.901 690.004 516.997 690.023Z" fill="black"/>
<path d="M310.138 707.634C293.676 711.865 279.757 706.144 271.482 692.006C268.787 687.402 269.173 686.396 274.354 684.533C289.73 679.001 307.651 686.749 313.37 701.229C314.711 704.626 314.182 706.641 310.138 707.634Z" fill="black"/>
<path d="M335.871 707.844C330.567 706.947 330.186 704.239 331.979 700.195C338.258 686.029 357.616 678.568 371.72 684.843C374.862 686.242 375.525 687.77 373.95 690.942C366.951 705.041 352.779 711.528 335.871 707.844Z" fill="black"/>
<path d="M328.632 658.005C336.258 672.522 335.422 686.36 326.486 697.055C323.099 701.109 321.841 701.099 318.35 696.991C308.589 685.508 309.067 665.421 319.25 654.126C321.595 651.525 323.602 651.357 325.778 654.084C326.709 655.251 327.553 656.488 328.632 658.005Z" fill="black"/>
<path d="M544.972 687.158C548.077 689.605 549.006 692.453 547.879 695.808C546.948 698.578 544.839 700.156 541.977 700.509C538.884 700.891 536.404 699.688 534.866 696.949C533.231 694.038 533.497 691.131 535.621 688.584C538.106 685.605 541.229 685.352 544.972 687.158Z" fill="black"/>
<path d="M107.288 686.466C110.393 688.913 111.321 691.761 110.194 695.116C109.264 697.886 107.155 699.463 104.293 699.817C101.2 700.198 98.7201 698.996 97.182 696.257C95.547 693.346 95.8128 690.438 97.9369 687.892C100.422 684.913 103.545 684.66 107.288 686.466Z" fill="black"/>
<path d="M326.021 706.142C329.603 709.109 330.447 712.398 327.992 715.994C326.129 718.722 323.346 719.798 320.157 718.48C316.83 717.105 315.508 714.339 315.93 710.851C316.485 706.271 320.372 704.363 326.021 706.142Z" fill="black"/>
</svg>
